<mxfile host="app.diagrams.net" modified="2022-08-18T02:35:56.734Z" agent="5.0 (Windows NT 10.0; WOW64) AppleWebKit/537.36 (KHTML, like Gecko) Chrome/104.0.0.0 Safari/537.36" etag="jUTQSePC3UM3MgmpHTKy" version="20.2.3" type="github">
  <diagram id="P9eXCazFzDoIIImT0GJN" name="第 1 页">
    <mxGraphModel dx="1422" dy="762" grid="1" gridSize="10" guides="1" tooltips="1" connect="1" arrows="1" fold="1" page="1" pageScale="1" pageWidth="827" pageHeight="1169" math="0" shadow="0">
      <root>
        <mxCell id="0" />
        <mxCell id="1" parent="0" />
        <mxCell id="eSFsuix2SfC9UTin_qDq-2" value="redis-6378" style="shape=cylinder3;whiteSpace=wrap;html=1;boundedLbl=1;backgroundOutline=1;size=15;" vertex="1" parent="1">
          <mxGeometry x="370" y="180" width="140" height="60" as="geometry" />
        </mxCell>
        <mxCell id="eSFsuix2SfC9UTin_qDq-3" value="&lt;b&gt;&lt;font color=&quot;#cc0000&quot;&gt;redis-6379&lt;/font&gt;&lt;/b&gt;" style="shape=cylinder3;whiteSpace=wrap;html=1;boundedLbl=1;backgroundOutline=1;size=15;" vertex="1" parent="1">
          <mxGeometry x="370" y="260" width="140" height="60" as="geometry" />
        </mxCell>
        <mxCell id="eSFsuix2SfC9UTin_qDq-4" value="redis-6378" style="shape=cylinder3;whiteSpace=wrap;html=1;boundedLbl=1;backgroundOutline=1;size=15;" vertex="1" parent="1">
          <mxGeometry x="570" y="410" width="140" height="60" as="geometry" />
        </mxCell>
        <mxCell id="eSFsuix2SfC9UTin_qDq-13" style="edgeStyle=none;rounded=1;orthogonalLoop=1;jettySize=auto;html=1;exitX=1;exitY=0.5;exitDx=0;exitDy=0;exitPerimeter=0;entryX=1;entryY=0.5;entryDx=0;entryDy=0;entryPerimeter=0;" edge="1" parent="1" source="eSFsuix2SfC9UTin_qDq-5" target="eSFsuix2SfC9UTin_qDq-6">
          <mxGeometry relative="1" as="geometry" />
        </mxCell>
        <mxCell id="eSFsuix2SfC9UTin_qDq-5" value="&lt;b&gt;&lt;font color=&quot;#cc0000&quot;&gt;redis-6379&lt;/font&gt;&lt;/b&gt;" style="shape=cylinder3;whiteSpace=wrap;html=1;boundedLbl=1;backgroundOutline=1;size=15;" vertex="1" parent="1">
          <mxGeometry x="570" y="490" width="140" height="60" as="geometry" />
        </mxCell>
        <mxCell id="eSFsuix2SfC9UTin_qDq-6" value="redis-6378" style="shape=cylinder3;whiteSpace=wrap;html=1;boundedLbl=1;backgroundOutline=1;size=15;" vertex="1" parent="1">
          <mxGeometry x="200" y="490" width="140" height="60" as="geometry" />
        </mxCell>
        <mxCell id="eSFsuix2SfC9UTin_qDq-18" style="rounded=1;orthogonalLoop=1;jettySize=auto;html=1;exitX=0.5;exitY=0;exitDx=0;exitDy=0;exitPerimeter=0;entryX=0;entryY=0;entryDx=0;entryDy=37.5;entryPerimeter=0;fontColor=#CC0000;" edge="1" parent="1" source="eSFsuix2SfC9UTin_qDq-7" target="eSFsuix2SfC9UTin_qDq-2">
          <mxGeometry relative="1" as="geometry" />
        </mxCell>
        <mxCell id="eSFsuix2SfC9UTin_qDq-7" value="&lt;b&gt;&lt;font color=&quot;#cc0000&quot;&gt;redis-6379&lt;/font&gt;&lt;/b&gt;" style="shape=cylinder3;whiteSpace=wrap;html=1;boundedLbl=1;backgroundOutline=1;size=15;" vertex="1" parent="1">
          <mxGeometry x="200" y="390" width="140" height="60" as="geometry" />
        </mxCell>
        <mxCell id="eSFsuix2SfC9UTin_qDq-9" value="10.131.1.105" style="text;html=1;strokeColor=none;fillColor=none;align=center;verticalAlign=middle;whiteSpace=wrap;rounded=0;" vertex="1" parent="1">
          <mxGeometry x="395" y="330" width="90" height="20" as="geometry" />
        </mxCell>
        <mxCell id="eSFsuix2SfC9UTin_qDq-10" value="10.131.1.106" style="text;html=1;strokeColor=none;fillColor=none;align=center;verticalAlign=middle;whiteSpace=wrap;rounded=0;" vertex="1" parent="1">
          <mxGeometry x="595" y="565" width="90" height="20" as="geometry" />
        </mxCell>
        <mxCell id="eSFsuix2SfC9UTin_qDq-11" value="10.131.1.107" style="text;html=1;strokeColor=none;fillColor=none;align=center;verticalAlign=middle;whiteSpace=wrap;rounded=0;" vertex="1" parent="1">
          <mxGeometry x="225" y="565" width="90" height="20" as="geometry" />
        </mxCell>
        <mxCell id="eSFsuix2SfC9UTin_qDq-12" value="" style="endArrow=classic;html=1;rounded=1;exitX=1;exitY=0;exitDx=0;exitDy=37.5;exitPerimeter=0;entryX=0;entryY=0;entryDx=0;entryDy=37.5;entryPerimeter=0;" edge="1" parent="1" source="eSFsuix2SfC9UTin_qDq-3" target="eSFsuix2SfC9UTin_qDq-4">
          <mxGeometry width="50" height="50" relative="1" as="geometry">
            <mxPoint x="390" y="410" as="sourcePoint" />
            <mxPoint x="440" y="360" as="targetPoint" />
          </mxGeometry>
        </mxCell>
      </root>
    </mxGraphModel>
  </diagram>
</mxfile>
